<svg xmlns="http://www.w3.org/2000/svg" xmlns:xlink="http://www.w3.org/1999/xlink" width="313" zoomAndPan="magnify" viewBox="0 0 234.75 38.999999" height="52" preserveAspectRatio="xMidYMid meet" version="1.0"><defs><g/><clipPath id="69ad06f421"><path d="M 190.464844 2 L 228.671875 2 L 228.671875 37.179688 L 190.464844 37.179688 Z M 190.464844 2 " clip-rule="nonzero"/></clipPath></defs><g fill="#ffffff" fill-opacity="1"><g transform="translate(3.535954, 30.452396)"><g><path d="M 2.09375 -23.859375 L 6.015625 -23.859375 L 13.390625 -10.71875 C 13.554688 -10.457031 13.757812 -10.066406 14 -9.546875 C 14.238281 -9.023438 14.394531 -8.671875 14.46875 -8.484375 L 14.578125 -8.59375 L 14.53125 -10.578125 L 14.53125 -23.859375 L 18.5 -23.859375 L 18.5 0 L 14.53125 0 L 7.171875 -13.140625 C 6.984375 -13.515625 6.773438 -13.929688 6.546875 -14.390625 C 6.328125 -14.859375 6.175781 -15.1875 6.09375 -15.375 L 5.953125 -15.265625 C 5.953125 -15.128906 5.960938 -14.863281 5.984375 -14.46875 C 6.003906 -14.070312 6.015625 -13.675781 6.015625 -13.28125 L 6.015625 0 L 2.09375 0 Z M 2.09375 -23.859375 "/></g></g></g><g fill="#ffffff" fill-opacity="1"><g transform="translate(24.123543, 30.452396)"><g><path d="M 2.09375 -23.859375 L 17.28125 -23.859375 L 17.28125 -19.890625 L 6.53125 -19.890625 L 6.53125 -14.1875 L 15.75 -14.1875 L 15.75 -10.21875 L 6.53125 -10.21875 L 6.53125 -3.96875 L 17.5 -3.96875 L 17.5 0 L 2.09375 0 Z M 2.09375 -23.859375 "/></g></g></g><g fill="#ffffff" fill-opacity="1"><g transform="translate(43.146193, 30.452396)"><g><path d="M 6.75 -12.515625 L 0.625 -23.859375 L 5.59375 -23.859375 L 9.59375 -16.0625 L 9.734375 -16.0625 L 13.734375 -23.859375 L 18.359375 -23.859375 L 12.203125 -12.59375 L 18.984375 0 L 14.046875 0 L 9.390625 -9.015625 L 9.25 -9.015625 L 4.625 0 L 0 0 Z M 6.75 -12.515625 "/></g></g></g><g fill="#ffffff" fill-opacity="1"><g transform="translate(62.168843, 30.452396)"><g><path d="M 10.296875 0.421875 C 7.703125 0.421875 5.691406 -0.253906 4.265625 -1.609375 C 2.835938 -2.972656 2.125 -4.929688 2.125 -7.484375 L 2.125 -23.859375 L 6.578125 -23.859375 L 6.578125 -7.609375 C 6.578125 -6.242188 6.898438 -5.203125 7.546875 -4.484375 C 8.191406 -3.765625 9.109375 -3.40625 10.296875 -3.40625 C 11.472656 -3.40625 12.390625 -3.765625 13.046875 -4.484375 C 13.710938 -5.203125 14.046875 -6.242188 14.046875 -7.609375 L 14.046875 -23.859375 L 18.5 -23.859375 L 18.5 -7.484375 C 18.5 -4.929688 17.78125 -2.972656 16.34375 -1.609375 C 14.90625 -0.253906 12.890625 0.421875 10.296875 0.421875 Z M 10.296875 0.421875 "/></g></g></g><g fill="#ffffff" fill-opacity="1"><g transform="translate(82.756432, 30.452396)"><g><path d="M 9.28125 0.421875 C 7.78125 0.421875 6.398438 0.140625 5.140625 -0.421875 C 3.890625 -0.992188 2.894531 -1.835938 2.15625 -2.953125 C 1.414062 -4.066406 1.046875 -5.410156 1.046875 -6.984375 L 1.078125 -7.75 L 5.703125 -7.75 L 5.671875 -7.203125 C 5.671875 -6.035156 6.003906 -5.109375 6.671875 -4.421875 C 7.347656 -3.742188 8.289062 -3.40625 9.5 -3.40625 C 10.726562 -3.40625 11.632812 -3.675781 12.21875 -4.21875 C 12.8125 -4.769531 13.109375 -5.4375 13.109375 -6.21875 C 13.109375 -7.007812 12.898438 -7.65625 12.484375 -8.15625 C 12.066406 -8.65625 11.550781 -9.039062 10.9375 -9.3125 C 10.320312 -9.59375 9.457031 -9.921875 8.34375 -10.296875 C 6.882812 -10.753906 5.703125 -11.210938 4.796875 -11.671875 C 3.890625 -12.140625 3.117188 -12.847656 2.484375 -13.796875 C 1.847656 -14.753906 1.53125 -16.019531 1.53125 -17.59375 C 1.53125 -19.03125 1.890625 -20.253906 2.609375 -21.265625 C 3.328125 -22.273438 4.285156 -23.03125 5.484375 -23.53125 C 6.691406 -24.03125 8.03125 -24.28125 9.5 -24.28125 C 11.769531 -24.28125 13.628906 -23.691406 15.078125 -22.515625 C 16.523438 -21.347656 17.25 -19.59375 17.25 -17.25 L 17.25 -16.828125 L 12.6875 -16.828125 L 12.6875 -17.140625 C 12.6875 -18.160156 12.394531 -18.96875 11.8125 -19.5625 C 11.238281 -20.15625 10.453125 -20.453125 9.453125 -20.453125 C 8.410156 -20.453125 7.59375 -20.210938 7 -19.734375 C 6.414062 -19.265625 6.125 -18.65625 6.125 -17.90625 C 6.125 -17.257812 6.316406 -16.726562 6.703125 -16.3125 C 7.097656 -15.894531 7.59375 -15.554688 8.1875 -15.296875 C 8.78125 -15.046875 9.597656 -14.757812 10.640625 -14.4375 C 12.148438 -13.945312 13.367188 -13.472656 14.296875 -13.015625 C 15.222656 -12.566406 16.019531 -11.867188 16.6875 -10.921875 C 17.363281 -9.972656 17.703125 -8.722656 17.703125 -7.171875 C 17.703125 -4.546875 16.953125 -2.625 15.453125 -1.40625 C 13.960938 -0.1875 11.90625 0.421875 9.28125 0.421875 Z M 9.28125 0.421875 "/></g></g></g><g fill="#ffffff" fill-opacity="1"><g transform="translate(101.779082, 30.452396)"><g><path d="M 1.84375 -23.859375 L 8.109375 -23.859375 L 11.0625 -10.71875 C 11.195312 -10.0625 11.367188 -9.101562 11.578125 -7.84375 C 11.785156 -6.582031 11.925781 -5.742188 12 -5.328125 L 12.140625 -5.328125 C 12.179688 -5.765625 12.289062 -6.625 12.46875 -7.90625 C 12.644531 -9.195312 12.800781 -10.132812 12.9375 -10.71875 L 15.859375 -23.859375 L 21.90625 -23.859375 L 21.90625 0 L 17.8125 0 L 17.8125 -15.203125 C 17.8125 -15.898438 17.832031 -16.632812 17.875 -17.40625 C 17.925781 -18.1875 17.960938 -18.726562 17.984375 -19.03125 L 17.84375 -19.03125 L 17.015625 -15.265625 L 13.671875 0 L 9.8125 0 L 6.4375 -15.34375 L 5.59375 -19.03125 L 5.453125 -19.03125 C 5.484375 -18.726562 5.519531 -18.179688 5.5625 -17.390625 C 5.613281 -16.597656 5.640625 -15.867188 5.640625 -15.203125 L 5.640625 0 L 1.84375 0 Z M 1.84375 -23.859375 "/></g></g></g><g fill="#ffffff" fill-opacity="1"><g transform="translate(125.531309, 30.452396)"><g><path d="M 1.734375 -23.859375 L 6.1875 -23.859375 L 6.1875 0 L 1.734375 0 Z M 1.734375 -23.859375 "/></g></g></g><g fill="#ffffff" fill-opacity="1"><g transform="translate(133.460309, 30.452396)"><g><path d="M 2.09375 -23.859375 L 6.015625 -23.859375 L 13.390625 -10.71875 C 13.554688 -10.457031 13.757812 -10.066406 14 -9.546875 C 14.238281 -9.023438 14.394531 -8.671875 14.46875 -8.484375 L 14.578125 -8.59375 L 14.53125 -10.578125 L 14.53125 -23.859375 L 18.5 -23.859375 L 18.5 0 L 14.53125 0 L 7.171875 -13.140625 C 6.984375 -13.515625 6.773438 -13.929688 6.546875 -14.390625 C 6.328125 -14.859375 6.175781 -15.1875 6.09375 -15.375 L 5.953125 -15.265625 C 5.953125 -15.128906 5.960938 -14.863281 5.984375 -14.46875 C 6.003906 -14.070312 6.015625 -13.675781 6.015625 -13.28125 L 6.015625 0 L 2.09375 0 Z M 2.09375 -23.859375 "/></g></g></g><g fill="#ffffff" fill-opacity="1"><g transform="translate(154.047898, 30.452396)"><g><path d="M 2.09375 -23.859375 L 17.28125 -23.859375 L 17.28125 -19.890625 L 6.53125 -19.890625 L 6.53125 -14.1875 L 15.75 -14.1875 L 15.75 -10.21875 L 6.53125 -10.21875 L 6.53125 -3.96875 L 17.5 -3.96875 L 17.5 0 L 2.09375 0 Z M 2.09375 -23.859375 "/></g></g></g><g fill="#ffffff" fill-opacity="1"><g transform="translate(173.070548, 30.452396)"><g><path d="M 2.09375 -23.859375 L 12.0625 -23.859375 C 14.40625 -23.859375 16.207031 -23.234375 17.46875 -21.984375 C 18.738281 -20.734375 19.375 -19.085938 19.375 -17.046875 C 19.375 -15.609375 19.019531 -14.351562 18.3125 -13.28125 C 17.601562 -12.21875 16.625 -11.429688 15.375 -10.921875 L 19.96875 0 L 15.125 0 L 11.171875 -9.953125 L 6.53125 -9.953125 L 6.53125 0 L 2.09375 0 Z M 11.4375 -13.875 C 12.488281 -13.875 13.273438 -14.144531 13.796875 -14.6875 C 14.316406 -15.238281 14.578125 -16.023438 14.578125 -17.046875 C 14.578125 -17.953125 14.332031 -18.648438 13.84375 -19.140625 C 13.351562 -19.640625 12.609375 -19.890625 11.609375 -19.890625 L 6.53125 -19.890625 L 6.53125 -13.875 Z M 11.4375 -13.875 "/></g></g></g><g clip-path="url(#69ad06f421)"><path fill="#ffffff" d="M 193.902344 26.355469 C 193.902344 25.632812 194.488281 25.042969 195.214844 25.042969 C 195.742188 25.042969 196.195312 25.351562 196.402344 25.796875 L 199.226562 25.796875 C 199.015625 26.15625 198.832031 26.527344 198.679688 26.914062 L 196.402344 26.914062 C 196.195312 27.359375 195.742188 27.667969 195.214844 27.667969 C 194.488281 27.667969 193.902344 27.082031 193.902344 26.355469 Z M 204.132812 9.445312 L 205.859375 6.449219 C 206.210938 5.839844 206.996094 5.628906 207.605469 5.980469 L 209.316406 6.96875 C 209.925781 7.320312 210.132812 8.105469 209.78125 8.710938 L 208.054688 11.707031 C 207.703125 12.316406 206.917969 12.527344 206.308594 12.175781 L 204.597656 11.1875 C 203.988281 10.835938 203.78125 10.054688 204.132812 9.445312 Z M 203.320312 8.199219 L 203.5 8.304688 L 204.558594 6.472656 L 204.375 6.367188 C 203.871094 6.074219 203.222656 6.25 202.933594 6.753906 C 202.640625 7.261719 202.8125 7.90625 203.320312 8.199219 Z M 210.414062 9.851562 L 209.355469 11.683594 L 227.148438 21.957031 C 227.652344 22.246094 228.300781 22.074219 228.589844 21.570312 C 228.882812 21.0625 228.710938 20.417969 228.203125 20.125 Z M 207.949219 4.90625 C 208.019531 4.9375 208.089844 4.976562 208.160156 5.015625 L 209.875 6.003906 C 210.15625 6.167969 210.394531 6.382812 210.582031 6.628906 C 212.046875 4.820312 213.675781 3.359375 215.320312 2.324219 C 215.390625 2.28125 215.351562 2.183594 215.285156 2.175781 C 212.789062 1.976562 210.121094 2.96875 207.949219 4.90625 Z M 206.648438 13.441406 C 206.339844 13.40625 206.035156 13.304688 205.753906 13.140625 L 204.039062 12.152344 C 203.96875 12.113281 203.902344 12.070312 203.839844 12.023438 C 203.25 14.875 203.722656 17.679688 205.144531 19.742188 C 205.183594 19.796875 205.285156 19.78125 205.289062 19.699219 C 205.363281 17.753906 205.816406 15.617188 206.648438 13.441406 Z M 206.285156 22.878906 C 202.378906 22.878906 199.214844 26.042969 199.214844 29.949219 C 199.214844 33.855469 202.378906 37.023438 206.285156 37.023438 C 210.191406 37.023438 213.359375 33.855469 213.359375 29.949219 C 213.359375 26.042969 210.191406 22.878906 206.285156 22.878906 Z M 206.285156 24.0625 C 209.539062 24.0625 212.175781 26.699219 212.175781 29.949219 C 212.175781 33.203125 209.539062 35.839844 206.285156 35.839844 C 203.035156 35.839844 200.398438 33.203125 200.398438 29.949219 C 200.398438 26.699219 203.035156 24.0625 206.285156 24.0625 Z M 206.285156 25.175781 C 208.921875 25.175781 211.058594 27.3125 211.058594 29.949219 C 211.058594 32.585938 208.921875 34.722656 206.285156 34.722656 C 203.648438 34.722656 201.511719 32.585938 201.511719 29.949219 C 201.511719 27.3125 203.648438 25.175781 206.285156 25.175781 Z M 207.546875 31.207031 C 207.761719 30.992188 208.117188 30.992188 208.335938 31.207031 C 208.550781 31.425781 208.550781 31.78125 208.335938 31.996094 C 208.097656 32.234375 207.816406 32.433594 207.5 32.578125 L 207.5 33.347656 C 207.5 33.65625 207.25 33.90625 206.945312 33.90625 C 206.636719 33.90625 206.386719 33.65625 206.386719 33.347656 L 206.386719 32.84375 C 206.320312 32.847656 206.25 32.847656 206.183594 32.84375 L 206.183594 33.347656 C 206.183594 33.652344 205.9375 33.902344 205.628906 33.902344 C 205.320312 33.902344 205.074219 33.652344 205.074219 33.347656 L 205.074219 32.582031 C 204.050781 32.109375 203.390625 31.082031 203.390625 29.949219 C 203.390625 28.816406 204.050781 27.792969 205.074219 27.320312 L 205.074219 26.550781 C 205.074219 26.246094 205.320312 25.996094 205.628906 25.996094 C 205.9375 25.996094 206.183594 26.246094 206.183594 26.550781 L 206.183594 27.054688 C 206.25 27.050781 206.316406 27.050781 206.386719 27.054688 L 206.386719 26.550781 C 206.386719 26.242188 206.636719 25.996094 206.945312 25.996094 C 207.25 25.996094 207.5 26.242188 207.5 26.550781 L 207.5 27.320312 C 207.816406 27.46875 208.097656 27.664062 208.335938 27.902344 C 208.550781 28.121094 208.550781 28.472656 208.335938 28.691406 C 208.117188 28.910156 207.761719 28.910156 207.546875 28.691406 C 207.207031 28.351562 206.765625 28.167969 206.285156 28.167969 C 205.300781 28.167969 204.503906 28.964844 204.503906 29.949219 C 204.503906 30.933594 205.300781 31.730469 206.285156 31.730469 C 206.765625 31.730469 207.207031 31.546875 207.546875 31.207031 Z M 190.464844 29.949219 C 190.464844 29.222656 191.050781 28.636719 191.777344 28.636719 C 192.304688 28.636719 192.757812 28.945312 192.964844 29.390625 L 198.117188 29.390625 C 198.089844 29.765625 198.089844 30.132812 198.117188 30.507812 L 192.964844 30.507812 C 192.757812 30.953125 192.304688 31.261719 191.777344 31.261719 C 191.050781 31.261719 190.464844 30.675781 190.464844 29.949219 Z M 193.902344 33.542969 C 193.902344 32.816406 194.488281 32.230469 195.214844 32.230469 C 195.742188 32.230469 196.195312 32.539062 196.402344 32.984375 L 198.679688 32.984375 C 198.832031 33.371094 199.015625 33.746094 199.226562 34.101562 L 196.402344 34.101562 C 196.195312 34.546875 195.742188 34.855469 195.214844 34.855469 C 194.488281 34.855469 193.902344 34.269531 193.902344 33.542969 Z M 216.167969 34.101562 L 213.34375 34.101562 C 213.554688 33.746094 213.738281 33.371094 213.894531 32.984375 L 216.167969 32.984375 C 216.378906 32.539062 216.832031 32.230469 217.355469 32.230469 C 218.082031 32.230469 218.671875 32.816406 218.671875 33.542969 C 218.671875 34.269531 218.082031 34.855469 217.355469 34.855469 C 216.832031 34.855469 216.378906 34.546875 216.167969 34.101562 Z M 216.167969 26.914062 L 213.894531 26.914062 C 213.738281 26.527344 213.554688 26.15625 213.34375 25.796875 L 216.167969 25.796875 C 216.378906 25.351562 216.832031 25.042969 217.355469 25.042969 C 218.082031 25.042969 218.671875 25.632812 218.671875 26.355469 C 218.671875 27.082031 218.082031 27.667969 217.355469 27.667969 C 216.832031 27.667969 216.378906 27.359375 216.167969 26.914062 Z M 219.605469 30.507812 L 214.457031 30.507812 C 214.480469 30.132812 214.480469 29.765625 214.457031 29.390625 L 219.605469 29.390625 C 219.816406 28.945312 220.269531 28.636719 220.792969 28.636719 C 221.519531 28.636719 222.109375 29.222656 222.109375 29.949219 C 222.109375 30.675781 221.519531 31.261719 220.792969 31.261719 C 220.269531 31.261719 219.816406 30.953125 219.605469 30.507812 Z M 219.605469 30.507812 " fill-opacity="1" fill-rule="evenodd"/></g></svg>