<svg xmlns="http://www.w3.org/2000/svg" xmlns:xlink="http://www.w3.org/1999/xlink" width="155" zoomAndPan="magnify" viewBox="0 0 116.25 30.750001" height="41" preserveAspectRatio="xMidYMid meet" version="1.0"><defs><g/></defs><g fill="#ffffff" fill-opacity="1"><g transform="translate(0.32241, 21.867157)"><g><path d="M 1.265625 -14.421875 L 3.640625 -14.421875 L 8.09375 -6.46875 C 8.1875 -6.3125 8.304688 -6.078125 8.453125 -5.765625 C 8.597656 -5.453125 8.695312 -5.238281 8.75 -5.125 L 8.8125 -5.1875 L 8.78125 -6.390625 L 8.78125 -14.421875 L 11.1875 -14.421875 L 11.1875 0 L 8.78125 0 L 4.328125 -7.9375 C 4.210938 -8.164062 4.085938 -8.421875 3.953125 -8.703125 C 3.828125 -8.984375 3.734375 -9.175781 3.671875 -9.28125 L 3.59375 -9.21875 C 3.59375 -9.132812 3.597656 -8.972656 3.609375 -8.734375 C 3.628906 -8.503906 3.640625 -8.269531 3.640625 -8.03125 L 3.640625 0 L 1.265625 0 Z M 1.265625 -14.421875 "/></g></g></g><g fill="#ffffff" fill-opacity="1"><g transform="translate(12.759003, 21.867157)"><g><path d="M 1.265625 -14.421875 L 10.4375 -14.421875 L 10.4375 -12.015625 L 3.953125 -12.015625 L 3.953125 -8.578125 L 9.515625 -8.578125 L 9.515625 -6.171875 L 3.953125 -6.171875 L 3.953125 -2.390625 L 10.578125 -2.390625 L 10.578125 0 L 1.265625 0 Z M 1.265625 -14.421875 "/></g></g></g><g fill="#ffffff" fill-opacity="1"><g transform="translate(24.250245, 21.867157)"><g><path d="M 4.078125 -7.5625 L 0.375 -14.421875 L 3.390625 -14.421875 L 5.796875 -9.703125 L 5.890625 -9.703125 L 8.296875 -14.421875 L 11.09375 -14.421875 L 7.375 -7.609375 L 11.46875 0 L 8.484375 0 L 5.671875 -5.4375 L 5.59375 -5.4375 L 2.796875 0 L 0 0 Z M 4.078125 -7.5625 "/></g></g></g><g fill="#ffffff" fill-opacity="1"><g transform="translate(35.741487, 21.867157)"><g><path d="M 6.21875 0.25 C 4.644531 0.25 3.425781 -0.15625 2.5625 -0.96875 C 1.707031 -1.789062 1.28125 -2.972656 1.28125 -4.515625 L 1.28125 -14.421875 L 3.96875 -14.421875 L 3.96875 -4.609375 C 3.96875 -3.773438 4.164062 -3.140625 4.5625 -2.703125 C 4.957031 -2.273438 5.507812 -2.0625 6.21875 -2.0625 C 6.9375 -2.0625 7.492188 -2.273438 7.890625 -2.703125 C 8.285156 -3.140625 8.484375 -3.773438 8.484375 -4.609375 L 8.484375 -14.421875 L 11.1875 -14.421875 L 11.1875 -4.515625 C 11.1875 -2.972656 10.75 -1.789062 9.875 -0.96875 C 9.007812 -0.15625 7.789062 0.25 6.21875 0.25 Z M 6.21875 0.25 "/></g></g></g><g fill="#ffffff" fill-opacity="1"><g transform="translate(48.178081, 21.867157)"><g><path d="M 5.609375 0.25 C 4.703125 0.25 3.867188 0.078125 3.109375 -0.265625 C 2.347656 -0.609375 1.742188 -1.113281 1.296875 -1.78125 C 0.847656 -2.457031 0.625 -3.269531 0.625 -4.21875 L 0.65625 -4.6875 L 3.453125 -4.6875 L 3.421875 -4.34375 C 3.421875 -3.644531 3.625 -3.085938 4.03125 -2.671875 C 4.4375 -2.265625 5.003906 -2.0625 5.734375 -2.0625 C 6.472656 -2.0625 7.019531 -2.222656 7.375 -2.546875 C 7.738281 -2.878906 7.921875 -3.285156 7.921875 -3.765625 C 7.921875 -4.234375 7.796875 -4.617188 7.546875 -4.921875 C 7.296875 -5.222656 6.984375 -5.457031 6.609375 -5.625 C 6.234375 -5.800781 5.710938 -6 5.046875 -6.21875 C 4.160156 -6.5 3.441406 -6.78125 2.890625 -7.0625 C 2.347656 -7.34375 1.882812 -7.769531 1.5 -8.34375 C 1.113281 -8.914062 0.921875 -9.679688 0.921875 -10.640625 C 0.921875 -11.503906 1.140625 -12.238281 1.578125 -12.84375 C 2.015625 -13.457031 2.59375 -13.914062 3.3125 -14.21875 C 4.039062 -14.519531 4.847656 -14.671875 5.734375 -14.671875 C 7.109375 -14.671875 8.234375 -14.316406 9.109375 -13.609375 C 9.984375 -12.898438 10.421875 -11.835938 10.421875 -10.421875 L 10.421875 -10.171875 L 7.671875 -10.171875 L 7.671875 -10.359375 C 7.671875 -10.972656 7.492188 -11.457031 7.140625 -11.8125 C 6.796875 -12.175781 6.320312 -12.359375 5.71875 -12.359375 C 5.082031 -12.359375 4.585938 -12.210938 4.234375 -11.921875 C 3.878906 -11.640625 3.703125 -11.273438 3.703125 -10.828125 C 3.703125 -10.429688 3.816406 -10.109375 4.046875 -9.859375 C 4.285156 -9.609375 4.582031 -9.40625 4.9375 -9.25 C 5.300781 -9.09375 5.800781 -8.914062 6.4375 -8.71875 C 7.34375 -8.425781 8.078125 -8.140625 8.640625 -7.859375 C 9.203125 -7.585938 9.6875 -7.164062 10.09375 -6.59375 C 10.5 -6.019531 10.703125 -5.265625 10.703125 -4.328125 C 10.703125 -2.742188 10.25 -1.582031 9.34375 -0.84375 C 8.4375 -0.113281 7.191406 0.25 5.609375 0.25 Z M 5.609375 0.25 "/></g></g></g><g fill="#ffffff" fill-opacity="1"><g transform="translate(59.669323, 21.867157)"><g><path d="M 1.109375 -14.421875 L 4.890625 -14.421875 L 6.6875 -6.46875 C 6.769531 -6.082031 6.875 -5.503906 7 -4.734375 C 7.125 -3.972656 7.207031 -3.46875 7.25 -3.21875 L 7.328125 -3.21875 C 7.359375 -3.476562 7.425781 -4 7.53125 -4.78125 C 7.632812 -5.5625 7.726562 -6.125 7.8125 -6.46875 L 9.578125 -14.421875 L 13.234375 -14.421875 L 13.234375 0 L 10.765625 0 L 10.765625 -9.1875 C 10.765625 -9.601562 10.773438 -10.046875 10.796875 -10.515625 C 10.828125 -10.984375 10.847656 -11.3125 10.859375 -11.5 L 10.78125 -11.5 L 10.28125 -9.21875 L 8.265625 0 L 5.921875 0 L 3.890625 -9.265625 L 3.390625 -11.5 L 3.296875 -11.5 C 3.316406 -11.3125 3.335938 -10.976562 3.359375 -10.5 C 3.390625 -10.03125 3.40625 -9.59375 3.40625 -9.1875 L 3.40625 0 L 1.109375 0 Z M 1.109375 -14.421875 "/></g></g></g><g fill="#ffffff" fill-opacity="1"><g transform="translate(74.017617, 21.867157)"><g><path d="M 1.046875 -14.421875 L 3.734375 -14.421875 L 3.734375 0 L 1.046875 0 Z M 1.046875 -14.421875 "/></g></g></g><g fill="#ffffff" fill-opacity="1"><g transform="translate(78.807384, 21.867157)"><g><path d="M 1.265625 -14.421875 L 3.640625 -14.421875 L 8.09375 -6.46875 C 8.1875 -6.3125 8.304688 -6.078125 8.453125 -5.765625 C 8.597656 -5.453125 8.695312 -5.238281 8.75 -5.125 L 8.8125 -5.1875 L 8.78125 -6.390625 L 8.78125 -14.421875 L 11.1875 -14.421875 L 11.1875 0 L 8.78125 0 L 4.328125 -7.9375 C 4.210938 -8.164062 4.085938 -8.421875 3.953125 -8.703125 C 3.828125 -8.984375 3.734375 -9.175781 3.671875 -9.28125 L 3.59375 -9.21875 C 3.59375 -9.132812 3.597656 -8.972656 3.609375 -8.734375 C 3.628906 -8.503906 3.640625 -8.269531 3.640625 -8.03125 L 3.640625 0 L 1.265625 0 Z M 1.265625 -14.421875 "/></g></g></g><g fill="#ffffff" fill-opacity="1"><g transform="translate(91.243977, 21.867157)"><g><path d="M 1.265625 -14.421875 L 10.4375 -14.421875 L 10.4375 -12.015625 L 3.953125 -12.015625 L 3.953125 -8.578125 L 9.515625 -8.578125 L 9.515625 -6.171875 L 3.953125 -6.171875 L 3.953125 -2.390625 L 10.578125 -2.390625 L 10.578125 0 L 1.265625 0 Z M 1.265625 -14.421875 "/></g></g></g><g fill="#ffffff" fill-opacity="1"><g transform="translate(102.735219, 21.867157)"><g><path d="M 1.265625 -14.421875 L 7.296875 -14.421875 C 8.710938 -14.421875 9.800781 -14.039062 10.5625 -13.28125 C 11.320312 -12.519531 11.703125 -11.523438 11.703125 -10.296875 C 11.703125 -9.429688 11.488281 -8.675781 11.0625 -8.03125 C 10.632812 -7.382812 10.039062 -6.90625 9.28125 -6.59375 L 12.0625 0 L 9.140625 0 L 6.75 -6.015625 L 3.953125 -6.015625 L 3.953125 0 L 1.265625 0 Z M 6.921875 -8.390625 C 7.546875 -8.390625 8.015625 -8.550781 8.328125 -8.875 C 8.648438 -9.207031 8.8125 -9.679688 8.8125 -10.296875 C 8.8125 -10.847656 8.660156 -11.269531 8.359375 -11.5625 C 8.066406 -11.863281 7.617188 -12.015625 7.015625 -12.015625 L 3.953125 -12.015625 L 3.953125 -8.390625 Z M 6.921875 -8.390625 "/></g></g></g></svg>